<svg width="128" height="50" viewBox="0 0 128 50" fill="none" xmlns="http://www.w3.org/2000/svg">
<path d="M2.512 49.736C2.08533 49.48 1.808 49.1387 1.68 48.712C1.50933 48.2853 1.296 47.88 1.04 47.496V47.304C1.04 47.0907 1.01867 46.8773 0.976 46.664C0.933333 46.4933 0.912 46.3227 0.912 46.152V45.128L1.68 45.704L1.808 45.64L2.192 45.064L2.512 45L2.768 44.68C3.74933 44.2533 4.56 43.8907 5.2 43.592C5.79733 43.336 6.52267 42.8667 7.376 42.184L7.504 42.12C7.20533 42.504 6.992 42.9093 6.864 43.336C6.736 43.7627 6.50133 44.1467 6.16 44.488L6.096 44.872L6.352 45.192C7.248 44.8507 8.29333 43.9547 9.488 42.504C10.6827 41.0533 11.92 39.304 13.2 37.256C14.48 35.208 15.696 33.096 16.848 30.92C18 28.7013 18.96 26.6747 19.728 24.84C20.5387 23.0053 21.0507 21.5973 21.264 20.616L21.136 20.424L20.752 20.872L20.496 19.464C20.112 19.5067 19.8773 19.2933 19.792 18.824C19.7067 18.312 19.664 17.8 19.664 17.288C19.664 16.8613 19.6427 16.4987 19.6 16.2C19.6 15.8587 19.536 15.688 19.408 15.688L19.28 15.176L19.536 14.28L21.776 13.832V12.616C21.9467 12.0187 21.8613 11.5067 21.52 11.08C21.2213 10.6107 20.9653 10.1413 20.752 9.672C20.752 9.37333 20.9227 8.94667 21.264 8.392C21.6053 7.79467 21.9467 7.496 22.288 7.496L22.608 7.624C22.864 8.60533 23.0773 9.58667 23.248 10.568C23.4613 11.5493 23.6107 12.552 23.696 13.576H23.952C24.2933 13.576 24.5067 13.64 24.592 13.768C24.6773 13.896 24.72 14.152 24.72 14.536C24.72 15.944 24.912 17.3307 25.296 18.696C25.7227 20.0613 25.936 21.4693 25.936 22.92C25.936 23.4747 26.1067 24.4133 26.448 25.736C26.7893 27.016 27.2373 28.36 27.792 29.768C28.3467 31.1333 28.944 32.328 29.584 33.352C30.2667 34.3333 30.9493 34.824 31.632 34.824H32.336C32.8053 34.44 33.2533 34.0987 33.68 33.8C34.1067 33.4587 34.5333 33.096 34.96 32.712C35.4293 32.2853 35.664 31.9867 35.664 31.816C35.7067 31.6453 35.792 31.2827 35.92 30.728C36.0053 30.3867 36.1333 30.088 36.304 29.832C36.5173 29.5333 36.6667 29.2347 36.752 28.936C38.0747 26.0347 39.184 22.984 40.08 19.784C41.0187 16.5413 41.488 13.3413 41.488 10.184L41.104 9.288C40.7627 9.45867 40.4 9.62933 40.016 9.8C39.632 9.928 39.3333 10.1627 39.12 10.504L38.736 10.696L38.224 10.632C37.456 11.3147 36.6667 11.976 35.856 12.616C35.088 13.2133 34.3413 13.8747 33.616 14.6L33.296 14.472C33.552 14.088 34 13.512 34.64 12.744C35.28 11.976 36.0053 11.1653 36.816 10.312C37.6267 9.416 38.3947 8.56267 39.12 7.752C39.8453 6.89867 40.4 6.19467 40.784 5.64C40.9973 5.55467 41.1893 5.46933 41.36 5.384C41.5733 5.29867 41.7653 5.256 41.936 5.256C42.7893 5.256 43.4293 5.55467 43.856 6.152C44.2827 6.74933 44.496 7.432 44.496 8.2C44.496 9.26667 44.3467 10.2907 44.048 11.272C43.7493 12.2533 43.6427 13.2987 43.728 14.408L43.472 14.856H43.152L43.216 14.28L43.088 14.088C43.0027 14.6853 42.7253 15.368 42.256 16.136C41.8293 16.904 41.7227 17.5653 41.936 18.12L41.424 18.824C41.5093 18.9947 41.552 19.208 41.552 19.464C41.552 20.9147 41.2747 22.344 40.72 23.752C40.1653 25.1173 39.5893 26.504 38.992 27.912C38.4373 29.2773 38.16 30.7067 38.16 32.2C38.16 32.4987 38.2667 32.7547 38.48 32.968C38.6933 33.1387 38.8 33.3733 38.8 33.672C38.8 34.3547 38.5653 35.1867 38.096 36.168C37.6693 37.1493 37.1147 38.0453 36.432 38.856C35.792 39.7093 35.152 40.328 34.512 40.712L33.488 40.776C33.0613 40.8187 32.528 40.7333 31.888 40.52C31.2907 40.3493 30.8213 40.072 30.48 39.688V39.56L29.904 39.624C29.136 39.7093 28.368 39.3893 27.6 38.664C26.8747 37.9387 26.192 37.0213 25.552 35.912C24.9547 34.8027 24.464 33.6933 24.08 32.584C23.7387 31.4747 23.568 30.5787 23.568 29.896C23.568 29.8533 23.6107 29.704 23.696 29.448C23.7813 29.192 23.8453 29.0213 23.888 28.936L23.632 28.616L23.504 28.68L22.992 27.464L23.312 26.696L22.672 25.8H22.608C22.2667 25.8 22.0107 25.6507 21.84 25.352C21.712 25.0533 21.6053 24.7547 21.52 24.456C21.3493 24.9253 21.0507 25.6507 20.624 26.632C20.1973 27.5707 19.728 28.5947 19.216 29.704C18.704 30.7707 18.2133 31.752 17.744 32.648C17.2747 33.544 16.912 34.1627 16.656 34.504L16.72 34.568C16.5067 34.8667 16.2933 35.1653 16.08 35.464C15.9093 35.7627 15.7173 36.0827 15.504 36.424L15.568 36.488L15.44 36.744C15.2693 36.9573 15.0987 37.1707 14.928 37.384C14.8 37.5973 14.6507 37.832 14.48 38.088C14.0107 39.0267 13.3067 40.0933 12.368 41.288C11.472 42.4827 10.448 43.656 9.296 44.808C8.144 46.0027 6.97067 47.0267 5.776 47.88C4.58133 48.776 3.49333 49.3947 2.512 49.736ZM42.576 16.968L42.384 16.712C42.4267 16.584 42.4907 16.456 42.576 16.328C42.704 16.1573 42.8107 16.0293 42.896 15.944L42.768 15.56L42.96 15.432H43.28C43.2373 15.7307 43.1733 16.008 43.088 16.264C43.0027 16.52 42.832 16.7547 42.576 16.968ZM41.936 19.208C41.936 18.9093 41.9787 18.632 42.064 18.376C42.192 18.12 42.3413 17.864 42.512 17.608L42.576 17.928C42.5333 18.184 42.448 18.4187 42.32 18.632C42.2347 18.8027 42.1067 18.9947 41.936 19.208ZM30.992 37.128L31.056 36.936L30.992 36.616L30.8 37.064L30.992 37.128ZM7.952 41.928L8.08 41.544L8.272 41.672L8.4 41.928H7.952ZM46.3805 37.448C45.9965 37.448 45.5272 37.192 44.9725 36.68C44.4605 36.168 44.0338 35.784 43.6925 35.528C43.6072 34.9733 43.4578 34.4827 43.2445 34.056C43.0312 33.5867 42.9245 33.096 42.9245 32.584C42.9245 31.816 43.2018 30.92 43.7565 29.896C44.3538 28.8293 45.1005 27.784 45.9965 26.76C46.9352 25.736 47.8738 24.8827 48.8125 24.2C49.7938 23.5173 50.6685 23.176 51.4365 23.176V23.048C52.0338 23.176 52.5885 23.56 53.1005 24.2C53.6552 24.84 53.9325 25.4373 53.9325 25.992C53.9325 26.504 53.6125 27.0373 52.9725 27.592C52.3752 28.104 51.6285 28.5947 50.7325 29.064C49.8792 29.4907 49.0258 29.832 48.1725 30.088C47.3618 30.344 46.7218 30.472 46.2525 30.472V30.6C45.9538 31.0693 45.6552 31.6667 45.3565 32.392C45.1005 33.0747 44.9725 33.7147 44.9725 34.312C44.9725 34.5253 45.0365 34.76 45.1645 35.016C45.4632 35.2293 45.8472 35.336 46.3165 35.336C46.7858 35.2933 47.1698 35.2933 47.4685 35.336L47.5325 35.4L47.7245 35.08C48.2792 35.0373 48.8125 34.9093 49.3245 34.696V34.312H49.7085V34.12L49.9645 34.184C50.1778 34.0987 50.3272 34.0133 50.4125 33.928C50.5405 33.8 50.6898 33.6933 50.8605 33.608L51.2445 33.8V33.736L52.3965 32.648H52.4605L52.6525 32.776V32.712C53.2072 32.2 53.8045 31.7307 54.4445 31.304C55.0845 30.8773 55.5538 30.3227 55.8525 29.64L56.5565 29.128L56.6845 29.256C56.6845 29.5547 56.5778 29.832 56.3645 30.088C56.1512 30.344 55.8952 30.5147 55.5965 30.6C55.2552 31.4107 54.7432 32.0933 54.0605 32.648C53.4205 33.2027 52.7592 33.7787 52.0765 34.376H51.8845L51.8205 34.696C51.0098 35.2507 50.1565 35.848 49.2605 36.488C48.4072 37.128 47.4472 37.448 46.3805 37.448ZM47.5965 29.256H47.7245V29.128C48.0232 29.0427 48.5352 28.7867 49.2605 28.36C50.0285 27.9333 50.7538 27.4853 51.4365 27.016C52.1192 26.504 52.4818 26.1413 52.5245 25.928H52.5885L52.5245 25.608L52.5885 25.288C52.5458 25.288 52.4605 25.288 52.3325 25.288C52.2045 25.2453 52.0978 25.224 52.0125 25.224C51.4578 25.608 50.9032 25.9707 50.3485 26.312C49.7938 26.6533 49.2392 26.9947 48.6845 27.336H48.5565L48.4925 27.848C48.2365 28.0187 48.0445 28.232 47.9165 28.488C47.7885 28.7013 47.6818 28.9573 47.5965 29.256ZM57.3245 29.064L56.9405 28.936L56.8765 28.552L57.5165 28.36L57.5805 28.552L57.3245 29.064ZM55.5125 37.064C55.1712 37.064 54.8298 36.9573 54.4885 36.744C54.1472 36.5307 53.9765 36.2107 53.9765 35.784C53.9765 35.528 54.0618 35.1013 54.2325 34.504C54.4032 33.9067 54.6165 33.2667 54.8725 32.584C55.1712 31.8587 55.4485 31.2187 55.7045 30.664C56.0032 30.1093 56.2378 29.768 56.4085 29.64C56.6218 28.872 56.8565 28.104 57.1125 27.336C57.3685 26.5253 57.5392 25.7147 57.6245 24.904C57.6672 24.6907 57.6885 24.456 57.6885 24.2C57.6885 23.944 57.6885 23.688 57.6885 23.432C57.6885 23.176 57.6885 22.92 57.6885 22.664C57.6885 22.408 57.7098 22.1733 57.7525 21.96L57.8805 21.512C58.3072 21.512 58.6272 21.7893 58.8405 22.344C59.0538 22.856 59.2032 23.4747 59.2885 24.2C59.3738 24.9253 59.4165 25.6293 59.4165 26.312C59.4592 26.952 59.5018 27.4213 59.5445 27.72L59.3525 28.808L59.4165 28.936C59.3738 29.1493 59.2885 29.384 59.1605 29.64C59.0325 29.896 58.9898 30.152 59.0325 30.408C58.8618 30.8347 58.6912 31.2613 58.5205 31.688C58.3498 32.1147 58.2218 32.5627 58.1365 33.032C58.5205 32.7333 58.9045 32.4347 59.2885 32.136C59.6725 31.8373 59.9925 31.4747 60.2485 31.048C60.5898 30.9627 60.9525 30.6427 61.3365 30.088C61.7205 29.4907 62.1045 28.8293 62.4885 28.104C62.8725 27.3787 63.2352 26.7387 63.5765 26.184C63.9605 25.6293 64.3232 25.352 64.6645 25.352C65.1338 25.352 65.5392 25.5653 65.8805 25.992C66.2645 26.376 66.4778 26.76 66.5205 27.144L66.6485 27.336C66.4778 28.104 66.2645 28.872 66.0085 29.64C65.7525 30.408 65.6245 31.2187 65.6245 32.072V32.904C65.7098 33.0747 65.8378 33.2453 66.0085 33.416C66.1792 33.5867 66.3712 33.6933 66.5845 33.736C66.8405 33.5227 67.1178 33.3733 67.4165 33.288C67.7152 33.16 68.0138 33.032 68.3125 32.904L68.2485 32.776L68.0565 32.712L68.1845 32.648L68.9525 32.136L69.0165 31.816L69.4645 31.688V31.112C69.6778 30.8133 69.9125 30.472 70.1685 30.088C70.4245 29.6613 70.7232 29.384 71.0645 29.256C71.6618 28.4027 72.2592 27.464 72.8565 26.44C73.4538 25.3733 74.1365 24.456 74.9045 23.688C74.9045 23.7307 74.9045 23.7947 74.9045 23.88C74.9472 23.9653 74.9685 24.0293 74.9685 24.072C74.9685 24.3707 74.8618 24.6693 74.6485 24.968C74.4778 25.224 74.3498 25.48 74.2645 25.736V25.864L73.9445 26.184L73.8805 26.056V26.376L73.8165 26.632H73.8805L73.3685 27.4L73.1125 27.464L73.1765 27.592H73.1125L73.0485 27.528C72.9632 27.528 72.9845 27.592 73.1125 27.72C72.9418 28.0187 72.7712 28.296 72.6005 28.552C72.4725 28.808 72.3018 29.0427 72.0885 29.256V29.384L71.7045 29.32L71.5765 29.704L71.7045 29.832L71.0005 30.408C71.0005 31.048 70.6592 31.7947 69.9765 32.648C69.3365 33.5013 68.5685 34.2267 67.6725 34.824C66.8192 35.4213 66.0725 35.6987 65.4325 35.656L64.7925 35.592C63.8538 34.9947 63.2992 34.44 63.1285 33.928C63.0005 33.416 62.9365 32.6267 62.9365 31.56C62.9365 31.176 62.9578 30.792 63.0005 30.408C63.0858 30.024 63.1712 29.64 63.2565 29.256L63.0005 29.192C62.7872 29.4907 62.3178 30.0667 61.5925 30.92C60.9098 31.7307 60.1418 32.6267 59.2885 33.608C58.4352 34.5467 57.6458 35.3573 56.9205 36.04C56.2378 36.7227 55.7685 37.064 55.5125 37.064ZM70.6265 40.776C70.3705 40.392 70.2425 40.008 70.2425 39.624C70.2425 39.3253 70.3065 39.048 70.4345 38.792C70.5198 38.536 70.6265 38.3013 70.7545 38.088H70.8185L70.7545 38.024C71.0532 37.5973 71.5225 37.0427 72.1625 36.36C72.8452 35.6773 73.5705 35.0587 74.3385 34.504C75.1065 33.9493 75.7252 33.6507 76.1945 33.608L76.5785 33.352C76.7918 33.0107 77.1118 32.6907 77.5385 32.392C78.0078 32.0507 78.4132 31.7733 78.7545 31.56L79.1385 31.624L79.0745 31.368L79.2665 31.24L79.0745 30.6C78.6478 30.4293 78.0932 30.216 77.4105 29.96C76.7705 29.704 76.1732 29.384 75.6185 29C75.1065 28.5733 74.8505 28.0827 74.8505 27.528C74.8505 27.1013 75.2345 26.504 76.0025 25.736C76.7705 24.968 77.6878 24.2 78.7545 23.432C79.8638 22.6213 80.9092 21.9387 81.8905 21.384C82.9145 20.8293 83.6398 20.552 84.0665 20.552C84.6212 20.3387 85.0265 19.9973 85.2825 19.528C85.5385 19.0587 85.7732 18.632 85.9865 18.248C86.2425 17.8213 86.5838 17.608 87.0105 17.608C87.5652 17.608 88.0345 17.8853 88.4185 18.44C88.8452 18.9947 89.1438 19.4853 89.3145 19.912C89.2718 20.0827 89.1438 20.232 88.9305 20.36C88.7598 20.488 88.6318 20.6587 88.5465 20.872C88.0345 21.2987 87.6078 21.832 87.2665 22.472C86.9678 23.0693 86.6692 23.6667 86.3705 24.264L85.2185 24.904L85.0265 24.648H84.9625C84.7918 24.8613 84.6212 25.0533 84.4505 25.224C84.2798 25.3947 84.1518 25.5867 84.0665 25.8C83.8958 25.9707 83.7252 26.2267 83.5545 26.568C83.4265 26.8667 83.2345 27.0373 82.9785 27.08L82.9145 26.952C83.1278 26.2693 83.3412 25.5867 83.5545 24.904C83.7678 24.1787 84.0025 23.4747 84.2585 22.792L84.3865 22.728L84.5145 21.768C84.0878 21.768 83.6825 21.8747 83.2985 22.088C82.9145 22.3013 82.4878 22.3867 82.0185 22.344C81.8478 22.472 81.5492 22.728 81.1225 23.112C80.7385 23.496 80.3545 23.8373 79.9705 24.136C79.5865 24.4347 79.2878 24.6053 79.0745 24.648C78.8185 25.1173 78.4345 25.5653 77.9225 25.992C77.4532 26.4187 77.2185 26.9307 77.2185 27.528C77.2185 27.784 77.3465 27.9547 77.6025 28.04C77.8585 28.0827 78.0932 28.104 78.3065 28.104V28.488L78.4345 28.424L79.4585 28.68L79.6505 28.488C80.2052 28.616 80.8878 28.8293 81.6985 29.128C82.5518 29.384 83.2985 29.7467 83.9385 30.216C84.6212 30.6853 84.9625 31.304 84.9625 32.072C84.9625 32.3707 84.8985 32.6693 84.7705 32.968C84.6425 33.2667 84.4718 33.5653 84.2585 33.864L83.2345 34.888L81.6345 34.76C81.3358 34.9733 80.8238 35.1653 80.0985 35.336C79.3732 35.464 78.6905 35.592 78.0505 35.72C77.4532 35.848 77.1545 35.9973 77.1545 36.168L76.5785 35.656C76.3652 36.04 76.0452 36.232 75.6185 36.232C75.1918 36.232 74.7652 36.232 74.3385 36.232C73.9545 36.232 73.5065 36.4667 72.9945 36.936C72.5252 37.4053 72.0985 37.9173 71.7145 38.472C71.3305 39.0693 71.0958 39.56 71.0105 39.944L70.6265 40.776ZM79.3905 46.344C79.0918 46.344 78.8145 46.2373 78.5585 46.024C78.3025 45.8533 78.1745 45.5973 78.1745 45.256C78.1745 44.744 78.4092 44.1253 78.8785 43.4C79.3052 42.6747 79.8598 41.928 80.5425 41.16C81.1825 40.392 81.8012 39.6453 82.3985 38.92C82.9958 38.2373 83.4225 37.64 83.6785 37.128L84.2545 36.744H84.5105L84.0625 37.256L84.1265 37.448C84.3825 37.2773 84.7878 36.9147 85.3425 36.36C85.9398 35.7627 86.4945 35.1653 87.0065 34.568C87.5612 33.9707 87.8812 33.5653 87.9665 33.352L88.7985 32.712C88.8838 32.2427 89.2252 31.6667 89.8225 30.984C90.4625 30.3013 91.1878 29.576 91.9985 28.808C92.8092 27.9973 93.5772 27.2293 94.3025 26.504C95.0705 25.7787 95.6038 25.16 95.9025 24.648L95.2625 23.944C94.7932 23.9867 94.4092 23.7093 94.1105 23.112C93.8545 22.5147 93.6412 21.7893 93.4705 20.936C93.2998 20.0827 93.1718 19.272 93.0865 18.504C93.0012 17.736 92.9158 17.2027 92.8305 16.904L92.5105 17.544L91.9985 15.816C91.6145 15.816 91.3372 15.5813 91.1665 15.112C90.9958 14.6427 90.8892 14.088 90.8465 13.448C90.8038 12.808 90.7612 12.232 90.7185 11.72C90.6758 11.208 90.5478 10.9093 90.3345 10.824L90.1425 10.184L90.3985 9.096L92.8945 8.392L92.6385 6.728L92.7025 6.792C92.7878 6.06667 92.6172 5.40533 92.1905 4.808C91.8065 4.21067 91.4865 3.57066 91.2305 2.888C91.2305 2.54667 91.3798 2.03467 91.6785 1.352C91.9772 0.626666 92.3398 0.242666 92.7665 0.199997L93.1505 0.327999C93.5345 1.52267 93.8972 2.76 94.2385 4.04C94.5798 5.32 94.8358 6.62133 95.0065 7.944H95.3265C95.7532 7.944 96.0305 8.05066 96.1585 8.264C96.2865 8.47733 96.3505 8.776 96.3505 9.16C96.3505 10.3547 96.5638 11.5707 96.9905 12.808C97.4172 14.0027 97.8225 15.1973 98.2065 16.392C98.6332 17.5867 98.7825 18.7813 98.6545 19.976L99.1665 21.192C99.7638 20.68 100.319 20.1253 100.831 19.528C101.385 18.9307 101.983 18.3547 102.623 17.8L102.559 17.736L104.543 15.88L104.479 15.816L104.735 15.496V15.56C106.569 13.9813 108.404 12.3173 110.239 10.568C112.116 8.776 114.079 7.13333 116.127 5.64C118.175 4.14666 120.393 3.05866 122.783 2.376C123.081 2.632 123.231 2.99466 123.231 3.464C123.231 3.89067 123.295 4.27467 123.423 4.616C123.209 4.95733 123.039 5.34133 122.911 5.768C122.825 6.19467 122.719 6.62133 122.591 7.048L122.015 6.472H121.951L121.375 7.112L120.927 7.176L120.607 7.496C119.583 7.83733 118.601 8.22133 117.663 8.648C116.767 9.032 115.871 9.50133 114.975 10.056H114.783C115.465 9.11733 116.212 8.328 117.023 7.688L117.343 7.112C116.66 7.15467 115.721 7.624 114.527 8.52C113.332 9.416 112.009 10.5467 110.559 11.912C109.151 13.2347 107.721 14.6213 106.271 16.072C104.82 17.5227 103.519 18.8453 102.367 20.04C101.215 21.2347 100.34 22.1307 99.7425 22.728C100.724 24.9893 101.641 26.952 102.495 28.616C103.348 30.28 104.265 31.7947 105.247 33.16C106.271 34.5253 107.444 35.8693 108.767 37.192C110.089 38.5147 111.711 39.944 113.631 41.48C115.124 41.6933 116.532 42.0133 117.854 42.44C119.22 42.8667 120.671 43.08 122.207 43.08C123.06 43.08 123.913 42.9947 124.767 42.824C125.663 42.6533 126.537 42.5893 127.391 42.632C127.092 42.9733 126.495 43.2933 125.599 43.592C124.745 43.9333 123.849 44.2107 122.911 44.424C122.015 44.6373 121.332 44.744 120.863 44.744C120.649 44.744 120.18 44.68 119.455 44.552C118.772 44.4667 118.004 44.3387 117.151 44.168C116.34 43.9973 115.615 43.8267 114.975 43.656C114.377 43.4853 114.036 43.336 113.951 43.208L114.143 42.888C113.972 42.376 113.588 42.056 112.991 41.928C112.393 41.8 111.732 41.7147 111.007 41.672C110.324 41.672 109.769 41.5867 109.343 41.416L108.959 40.904H108.703C108.105 40.904 107.572 40.7333 107.103 40.392C106.676 40.0507 106.292 39.6667 105.951 39.24L104.735 39.368L104.415 38.664V38.216L104.031 37.768L103.647 38.28C103.092 38.0667 102.473 37.7253 101.791 37.256C101.151 36.8293 100.788 36.2747 100.703 35.592C100.447 35.336 100.041 34.76 99.4865 33.864C98.9318 32.9253 98.3772 31.9653 97.8225 30.984C97.2678 30.0027 96.8625 29.2773 96.6065 28.808L96.9905 27.912L96.6705 27.464L96.4785 27.528L95.9665 26.504C95.4972 26.9733 94.7505 27.7413 93.7265 28.808C92.7025 29.832 91.5718 31.0053 90.3345 32.328C89.1398 33.608 87.9665 34.9093 86.8145 36.232C85.7052 37.512 84.7878 38.6853 84.0625 39.752C83.3372 40.8187 82.9745 41.608 82.9745 42.12L83.0385 42.248C83.5078 42.0773 83.9772 41.9067 84.4465 41.736C84.9585 41.608 85.4065 41.3733 85.7905 41.032L86.3025 40.84L86.8145 40.904C87.7105 40.0507 88.8625 39.3253 90.2705 38.728C91.6785 38.1307 92.9372 37.512 94.0465 36.872L94.3025 37C94.2598 37.0427 93.7905 37.3627 92.8945 37.96C92.0412 38.5573 90.9532 39.2827 89.6305 40.136C88.3505 41.032 87.0492 41.928 85.7265 42.824C84.4465 43.72 83.3585 44.4667 82.4625 45.064C81.5238 45.6613 81.0332 45.9813 80.9905 46.024C80.4358 46.2373 79.9025 46.344 79.3905 46.344ZM87.0065 33.864L87.0705 33.544C87.5398 32.9893 88.0518 32.5627 88.6065 32.264C88.3932 32.5627 88.1372 32.84 87.8385 33.096C87.5825 33.352 87.3052 33.608 87.0065 33.864ZM85.1505 36.104L84.8305 36.04C85.0438 35.8267 85.2785 35.5707 85.5345 35.272C85.8332 34.9307 86.1318 34.6747 86.4305 34.504L86.5585 34.76C86.4305 34.9307 86.2598 35.08 86.0465 35.208C85.8758 35.336 85.7052 35.464 85.5345 35.592L85.4065 35.912L85.1505 36.104Z" fill="black"/>
</svg>
